<?xml version="1.0" encoding="UTF-8"?>
<svg width="131px" height="18px" viewBox="0 0 131 18" version="1.1" xmlns="http://www.w3.org/2000/svg" xmlns:xlink="http://www.w3.org/1999/xlink">
    <!-- Generator: Sketch 53.2 (72643) - https://sketchapp.com -->
    <title>BrandStack</title>
    <desc>Created with Sketch.</desc>
    <g id="Page-1" stroke="none" stroke-width="1" fill="none" fill-rule="evenodd">
        <g id="Desktop-HD" transform="translate(-150.000000, -39.000000)" fill="#ECF0F1" fill-rule="nonzero">
            <g id="Header" transform="translate(150.000000, 30.000000)">
                <path d="M8.20703125,18.0449219 C9.63933008,18.1165368 10.8227492,18.3439108 11.7573242,18.7270508 C12.6918992,19.1101907 13.3722309,19.5828422 13.7983398,20.1450195 C14.2244487,20.7071968 14.4375,21.306963 14.4375,21.9443359 C14.4375,23.3766348 13.8627987,24.4454717 12.7133789,25.1508789 C11.5639591,25.8562861 9.93653396,26.2089844 7.83105469,26.2089844 C7.52311044,26.2089844 6.97884505,26.1982423 6.19824219,26.1767578 C5.41763933,26.1552733 4.62988679,26.1445312 3.83496094,26.1445312 C2.11620234,26.1445312 0.837894814,26.1660154 0,26.2089844 L0,25.7685547 C0.472658613,25.7470702 0.814614829,25.6897791 1.02587891,25.5966797 C1.23714298,25.5035803 1.38037072,25.331707 1.45556641,25.0810547 C1.53076209,24.8304024 1.56835938,24.4293647 1.56835938,23.8779297 L1.56835938,12.9638672 C1.56835938,12.4124321 1.52897175,12.0113945 1.45019531,11.7607422 C1.37141888,11.5100899 1.2264008,11.3382166 1.01513672,11.2451172 C0.803872642,11.1520178 0.465497119,11.0947267 0,11.0732422 L0,10.6328125 C0.837894814,10.6757815 2.10187957,10.6972656 3.79199219,10.6972656 C4.3935577,10.6972656 5.06314735,10.6901042 5.80078125,10.6757812 C6.53841515,10.6614583 7.0468736,10.6542969 7.32617188,10.6542969 C8.62956381,10.6542969 9.72704632,10.799315 10.6186523,11.0893555 C11.5102584,11.379396 12.1780577,11.7840143 12.6220703,12.3032227 C13.0660829,12.822431 13.2880859,13.4257778 13.2880859,14.1132812 C13.2880859,14.6575548 13.1000995,15.2018202 12.7241211,15.7460938 C12.3481427,16.2903673 11.7770221,16.7683899 11.0107422,17.1801758 C10.2444623,17.5919617 9.30990135,17.8658847 8.20703125,18.0019531 L8.20703125,18.0449219 Z M6.62792969,17.9375 C7.42285554,17.9375 7.97607266,17.6134473 8.28759766,16.965332 C8.59912265,16.3172168 8.75488281,15.445318 8.75488281,14.3496094 C8.75488281,13.2395778 8.63671993,12.4160183 8.40039062,11.8789062 C8.16406132,11.3417942 7.77018505,11.0732422 7.21875,11.0732422 C6.88215978,11.0732422 6.62972089,11.1251622 6.46142578,11.2290039 C6.29313067,11.3328456 6.17854848,11.5172513 6.11767578,11.7822266 C6.05680308,12.0472018 6.02636719,12.4410781 6.02636719,12.9638672 L6.02636719,17.9375 L6.62792969,17.9375 Z M6.02636719,23.8779297 C6.02636719,24.4078803 6.06396447,24.7981758 6.13916016,25.0488281 C6.21435584,25.2994804 6.35042219,25.4713537 6.54736328,25.5644531 C6.74430437,25.6575525 7.05045365,25.7041016 7.46582031,25.7041016 C9.03418753,25.7041016 9.81835938,24.4186326 9.81835938,21.8476562 C9.81835938,20.6946557 9.54085564,19.8173858 8.98583984,19.2158203 C8.43082405,18.6142548 7.54818313,18.3134766 6.33789062,18.3134766 L6.02636719,18.3134766 L6.02636719,23.8779297 Z M21.5060981,16.1328125 C22.0790176,15.0299424 23.0279014,14.4785156 24.3527778,14.4785156 C25.0689272,14.4785156 25.584547,14.6987283 25.8996528,15.1391602 C26.2147585,15.579592 26.372309,16.1005829 26.372309,16.7021484 C26.372309,17.3610059 26.1879033,17.8855775 25.8190864,18.2758789 C25.4502694,18.6661803 24.9615048,18.8613281 24.3527778,18.8613281 C23.7154048,18.8613281 23.2284305,18.7198907 22.8918403,18.4370117 C22.5552501,18.1541327 22.3869575,17.7692082 22.3869575,17.2822266 C22.3869575,16.4085243 22.7629303,15.7246118 23.5148872,15.2304688 C23.2499119,15.2304688 23.0135861,15.2805985 22.8059028,15.3808594 C22.4335051,15.5384122 22.1237751,15.7980125 21.8767036,16.159668 C21.629632,16.5213234 21.5060981,16.91699 21.5060981,17.3466797 L21.5060981,23.9423828 C21.5060981,24.4078799 21.5705506,24.7713203 21.6994575,25.0327148 C21.8283644,25.2941094 22.0288832,25.4785151 22.30102,25.5859375 C22.5731567,25.6933599 22.9383875,25.7470703 23.3967231,25.7470703 L23.3967231,26.2089844 C21.5920266,26.1516924 20.4068171,26.1230469 19.841059,26.1230469 C19.2967855,26.1230469 18.1223181,26.1516924 16.3176215,26.2089844 L16.3176215,25.7470703 C16.6255658,25.7470703 16.8690529,25.7005213 17.0480903,25.6074219 C17.2271276,25.5143225 17.3560326,25.3531913 17.434809,25.1240234 C17.5135855,24.8948556 17.5529731,24.5761739 17.5529731,24.1679688 L17.5529731,17.1855469 C17.5529731,16.5052049 17.4598751,16.0128596 17.2736762,15.7084961 C17.0874774,15.4041326 16.7687957,15.2519531 16.3176215,15.2519531 L16.3176215,14.7900391 C16.7831186,14.833008 17.2378667,14.8544922 17.6818793,14.8544922 C19.2072776,14.8544922 20.4820044,14.7542328 21.5060981,14.5537109 L21.5060981,16.1328125 Z M33.7524306,16.7236328 C33.7524306,16.2581357 33.636058,15.8409849 33.4033095,15.472168 C33.1705609,15.103351 32.742668,14.9189453 32.1196181,14.9189453 C31.9334192,14.9189453 31.7346907,14.9547522 31.5234267,15.0263672 C31.3121626,15.0979821 31.1241762,15.1874995 30.9594618,15.2949219 C31.9405865,15.6601581 32.4311415,16.3225863 32.4311415,17.2822266 C32.4311415,17.6259783 32.3434145,17.9374986 32.1679579,18.2167969 C31.9925013,18.4960951 31.7436431,18.7180981 31.4213759,18.8828125 C31.0991086,19.0475269 30.7302972,19.1298828 30.3149306,19.1298828 C29.9568559,19.1298828 29.6417548,19.0457365 29.3696181,18.8774414 C29.0974813,18.7091463 28.8862204,18.4781916 28.735829,18.1845703 C28.5854376,17.8909491 28.5102431,17.565106 28.5102431,17.2070312 C28.5102431,16.7630186 28.633777,16.3709327 28.8808485,16.0307617 C29.1279201,15.6905907 29.4591342,15.4095063 29.8745009,15.1875 C30.7983336,14.7148414 31.972801,14.4785156 33.3979384,14.4785156 C34.2358332,14.4785156 34.9448105,14.5590812 35.5248915,14.7202148 C36.1049725,14.8813485 36.5919468,15.1695943 36.985829,15.5849609 C37.2722888,15.8857437 37.4638559,16.2670875 37.560536,16.7290039 C37.6572162,17.1909203 37.7055556,17.8372354 37.7055556,18.6679688 L37.7055556,24.5546875 C37.7055556,24.9056007 37.7306204,25.1508782 37.7807509,25.2905273 C37.8308813,25.4301765 37.916818,25.5 38.0385634,25.5 C38.1531473,25.5 38.2587777,25.4731448 38.3554579,25.4194336 C38.4521381,25.3657224 38.575672,25.2851568 38.7260634,25.1777344 L38.9409071,25.5537109 C38.5971554,25.8401707 38.1961177,26.0460606 37.7377821,26.1713867 C37.2794465,26.2967129 36.7280197,26.359375 36.0834852,26.359375 C35.3100439,26.359375 34.742504,26.2036148 34.3808485,25.8920898 C34.0191931,25.5805648 33.8312067,25.1813175 33.8168837,24.6943359 C33.5089394,25.202802 33.0756755,25.6074204 32.517079,25.9082031 C31.9584825,26.2089859 31.3426032,26.359375 30.6694227,26.359375 C29.802882,26.359375 29.1243406,26.1302106 28.6337782,25.671875 C28.1432159,25.2135394 27.8979384,24.6012408 27.8979384,23.8349609 C27.8979384,23.0830041 28.1235221,22.4563827 28.5746962,21.9550781 C29.0258703,21.4537735 29.7312669,21.0455745 30.6909071,20.7304688 C31.47151,20.4511705 32.049792,20.2309578 32.4257704,20.0698242 C32.8017488,19.9086906 33.1168499,19.7153332 33.3710829,19.4897461 C33.6253159,19.264159 33.7524306,18.9973974 33.7524306,18.6894531 L33.7524306,16.7236328 Z M33.7524306,19.5917969 C33.6450081,19.7708342 33.3585527,20.0930966 32.8930556,20.5585938 C32.1769061,21.2532587 31.8188368,22.0803988 31.8188368,23.0400391 C31.8188368,24.0784557 32.1912289,24.5976562 32.9360243,24.5976562 C33.2439686,24.5976562 33.5161013,24.4759127 33.7524306,24.2324219 L33.7524306,19.5917969 Z M45.7194661,16.1328125 C46.3854851,15.0299424 47.5527911,14.4785156 49.2214193,14.4785156 C50.3887428,14.4785156 51.215883,14.7721325 51.7028646,15.359375 C51.9248709,15.6243503 52.0877925,15.9806293 52.1916341,16.4282227 C52.2954758,16.875816 52.3473958,17.4684208 52.3473958,18.2060547 L52.3473958,24.1679688 C52.3473958,24.5761739 52.3867835,24.8948556 52.4655599,25.1240234 C52.5443363,25.3531913 52.6714509,25.5143225 52.8469076,25.6074219 C53.0223642,25.7005213 53.264061,25.7470703 53.5720052,25.7470703 L53.5720052,26.2089844 C51.9964765,26.1516924 50.9723982,26.1230469 50.4997396,26.1230469 C49.9912735,26.1230469 48.9492917,26.1516924 47.373763,26.2089844 L47.373763,25.7470703 C47.6315768,25.7470703 47.8320956,25.7005213 47.9753255,25.6074219 C48.1185554,25.5143225 48.2223955,25.3549816 48.286849,25.1293945 C48.3513024,24.9038075 48.3835286,24.5833354 48.3835286,24.1679688 L48.3835286,17.0136719 C48.3835286,16.5410133 48.297592,16.1918957 48.1257161,15.9663086 C47.9538403,15.7407215 47.6817076,15.6279297 47.3093099,15.6279297 C47.0371731,15.6279297 46.7793632,15.6959629 46.5358724,15.8320312 C46.2923816,15.9680996 46.0954435,16.156086 45.9450521,16.3959961 C45.7946607,16.6359061 45.7194661,16.9062485 45.7194661,17.2070312 L45.7194661,24.1679688 C45.7194661,24.5761739 45.7516924,24.8948556 45.8161458,25.1240234 C45.8805993,25.3531913 45.9862297,25.5143225 46.1330404,25.6074219 C46.279851,25.7005213 46.4821602,25.7470703 46.739974,25.7470703 L46.739974,26.2089844 C45.2503832,26.1516924 44.2800153,26.1230469 43.8288411,26.1230469 C43.3203751,26.1230469 42.2211022,26.1516924 40.5309896,26.2089844 L40.5309896,25.7470703 C40.8389338,25.7470703 41.082421,25.7005213 41.2614583,25.6074219 C41.4404957,25.5143225 41.5694007,25.3531913 41.6481771,25.1240234 C41.7269535,24.8948556 41.7663411,24.5761739 41.7663411,24.1679688 L41.7663411,17.1855469 C41.7663411,16.5052049 41.6732431,16.0128596 41.4870443,15.7084961 C41.3008454,15.4041326 40.9821637,15.2519531 40.5309896,15.2519531 L40.5309896,14.7900391 C40.9964867,14.833008 41.4512348,14.8544922 41.8952474,14.8544922 C43.4206457,14.8544922 44.6953725,14.7542328 45.7194661,14.5537109 L45.7194661,16.1328125 Z M66.6132596,23.7919922 C66.6132596,24.4723341 66.7045672,24.9646795 66.8871853,25.269043 C67.0698034,25.5734065 67.3866948,25.7255859 67.8378689,25.7255859 L67.8378689,26.1875 C67.3795333,26.144531 66.9247852,26.1230469 66.4736111,26.1230469 C64.9553744,26.1230469 63.6806475,26.2233063 62.6493924,26.4238281 L62.6493924,24.8662109 C62.3486096,25.4391305 61.9869596,25.8580716 61.5644314,26.1230469 C61.1419033,26.3880222 60.60838,26.5205078 59.9638455,26.5205078 C59.0901432,26.5205078 58.3167134,26.3056662 57.643533,25.8759766 C56.9703525,25.4462869 56.4404099,24.7766973 56.0536892,23.8671875 C55.6669686,22.9576777 55.4736111,21.8082752 55.4736111,20.4189453 C55.4736111,19.1227149 55.6741299,18.0306034 56.0751736,17.1425781 C56.4762173,16.2545529 57.0419668,15.5885439 57.7724392,15.1445312 C58.5029116,14.7005186 59.3658587,14.4785156 60.3613064,14.4785156 C61.3209466,14.4785156 62.0836343,14.6647117 62.6493924,15.0371094 L62.6493924,11.6425781 C62.6493924,10.9622362 62.5562943,10.4698908 62.3700955,10.1655273 C62.1838966,9.86116384 61.8652149,9.70898438 61.4140408,9.70898438 L61.4140408,9.24707031 C61.8723764,9.29003928 62.3271245,9.31152344 62.7782986,9.31152344 C64.3180199,9.31152344 65.5963274,9.20768333 66.6132596,9 L66.6132596,23.7919922 Z M62.6493924,15.4990234 C62.3271251,15.3056631 61.9833786,15.2089844 61.6181424,15.2089844 C60.9378004,15.2089844 60.429342,15.6440386 60.0927517,16.5141602 C59.7561615,17.3842817 59.5878689,18.7109286 59.5878689,20.4941406 C59.5878689,22.2988371 59.7203546,23.5628219 59.9853299,24.2861328 C60.2503051,25.0094437 60.6119552,25.3710938 61.0702908,25.3710938 C61.3424276,25.3710938 61.5984472,25.3030606 61.8383572,25.1669922 C62.0782673,25.0309238 62.2734151,24.8429374 62.4238064,24.6030273 C62.5741978,24.3631173 62.6493924,24.0927749 62.6493924,23.7919922 L62.6493924,15.4990234 Z M70.8459201,19.9785156 C70.9390196,21.7187587 71.3006696,23.1331326 71.9308811,24.2216797 C72.5610926,25.3102268 73.5314605,25.8544922 74.8420139,25.8544922 C75.6584242,25.8544922 76.302949,25.6647154 76.7756076,25.2851562 C77.2482663,24.9055971 77.484592,24.3792351 77.484592,23.7060547 C77.484592,23.1259737 77.3538967,22.6049828 77.0925022,22.1430664 C76.8311076,21.68115 76.4784093,21.2586282 76.0343967,20.8754883 C75.5903841,20.4923483 75.0031504,20.0572941 74.272678,19.5703125 C73.3846527,18.9759085 72.6810464,18.4602886 72.1618381,18.0234375 C71.6426298,17.5865864 71.2129466,17.0763376 70.8727756,16.4926758 C70.5326046,15.909014 70.3625217,15.237634 70.3625217,14.4785156 C70.3625217,13.5618444 70.6113799,12.790205 71.1091037,12.1635742 C71.6068276,11.5369435 72.2674655,11.0732437 73.0910373,10.7724609 C73.9146092,10.4716782 74.8205246,10.3212891 75.8088108,10.3212891 C76.6538671,10.3212891 77.3377795,10.4000643 77.8605686,10.5576172 C78.3833577,10.7151701 78.8882354,10.9300117 79.375217,11.2021484 C79.5829004,11.3167323 79.7368702,11.3972979 79.8371311,11.4438477 C79.937392,11.4903974 80.0340707,11.5136719 80.1271701,11.5136719 C80.2632385,11.5136719 80.3670786,11.436687 80.4386936,11.2827148 C80.5103085,11.1287427 80.5675996,10.8834652 80.6105686,10.546875 L81.1154514,10.546875 C81.0438365,11.5996146 81.0080295,13.3899613 81.0080295,15.9179688 L80.5031467,15.9179688 C80.4458548,15.0800739 80.2542877,14.2779986 79.9284397,13.5117188 C79.6025917,12.7454389 79.1603761,12.1223982 78.6017795,11.6425781 C78.043183,11.162758 77.3986582,10.9228516 76.6681858,10.9228516 C76.0021668,10.9228516 75.4614821,11.1018862 75.0461155,11.4599609 C74.6307488,11.8180356 74.4230686,12.3193327 74.4230686,12.9638672 C74.4230686,13.4938178 74.5466025,13.9485658 74.7936741,14.328125 C75.0407456,14.7076842 75.3809115,15.0657535 75.8141819,15.4023438 C76.2474523,15.738934 77.0763828,16.3333291 78.3009983,17.1855469 C79.1102471,17.7513049 79.7547719,18.2472309 80.234592,18.6733398 C80.7144121,19.0994487 81.1064981,19.5989555 81.4108616,20.171875 C81.7152251,20.7447945 81.8674045,21.4072228 81.8674045,22.1591797 C81.8674045,23.1116584 81.5988525,23.9155241 81.0617405,24.5708008 C80.5246284,25.2260775 79.804909,25.7148421 78.9025608,26.0371094 C78.0002125,26.3593766 76.9940377,26.5205078 75.8840061,26.5205078 C74.9816578,26.5205078 74.2350833,26.4471036 73.64426,26.300293 C73.0534367,26.1534823 72.5002196,25.9547539 71.984592,25.7041016 C71.6551633,25.4964182 71.4080954,25.3925781 71.2433811,25.3925781 C71.1073127,25.3925781 71.0034726,25.4677727 70.9318576,25.6181641 C70.8602427,25.7685554 70.7993709,26.0156233 70.7492405,26.359375 L70.2443576,26.359375 C70.3088111,25.2421819 70.3410373,23.1152501 70.3410373,19.9785156 L70.8459201,19.9785156 Z M91.3422526,14.8115234 L91.3422526,15.2519531 L89.1830729,15.2519531 L89.1830729,24.3613281 C89.1830729,24.6477879 89.2332026,24.8518874 89.3334635,24.9736328 C89.4337245,25.0953782 89.6055977,25.15625 89.8490885,25.15625 C90.0281259,25.15625 90.225064,25.1043299 90.4399089,25.0004883 C90.6547537,24.8966466 90.8516918,24.7337251 91.0307292,24.5117188 L91.363737,24.7802734 C90.6905565,25.9404355 89.6485748,26.5205078 88.2377604,26.5205078 C87.2279898,26.5205078 86.4724635,26.2698593 85.9711589,25.7685547 C85.6703761,25.4677719 85.4698573,25.0882184 85.3695964,24.6298828 C85.2693354,24.1715472 85.2192057,23.5306031 85.2192057,22.7070312 L85.2192057,15.2519531 L83.5541667,15.2519531 L83.5541667,14.8115234 L85.2192057,14.8115234 L85.2192057,12.1904297 C86.0141316,12.1904297 86.7302703,12.1134448 87.3676432,11.9594727 C88.0050162,11.8055005 88.6101534,11.560223 89.1830729,11.2236328 L89.1830729,14.8115234 L91.3422526,14.8115234 Z M98.6471788,16.7236328 C98.6471788,16.2581357 98.5308063,15.8409849 98.2980577,15.472168 C98.0653092,15.103351 97.6374163,14.9189453 97.0143663,14.9189453 C96.8281675,14.9189453 96.629439,14.9547522 96.4181749,15.0263672 C96.2069108,15.0979821 96.0189244,15.1874995 95.8542101,15.2949219 C96.8353348,15.6601581 97.3258898,16.3225863 97.3258898,17.2822266 C97.3258898,17.6259783 97.2381628,17.9374986 97.0627062,18.2167969 C96.8872496,18.4960951 96.6383914,18.7180981 96.3161241,18.8828125 C95.9938569,19.0475269 95.6250455,19.1298828 95.2096788,19.1298828 C94.8516041,19.1298828 94.5365031,19.0457365 94.2643663,18.8774414 C93.9922296,18.7091463 93.7809686,18.4781916 93.6305773,18.1845703 C93.4801859,17.8909491 93.4049913,17.565106 93.4049913,17.2070312 C93.4049913,16.7630186 93.5285252,16.3709327 93.7755968,16.0307617 C94.0226683,15.6905907 94.3538825,15.4095063 94.7692491,15.1875 C95.6930819,14.7148414 96.8675493,14.4785156 98.2926866,14.4785156 C99.1305815,14.4785156 99.8395587,14.5590812 100.41964,14.7202148 C100.999721,14.8813485 101.486695,15.1695943 101.880577,15.5849609 C102.167037,15.8857437 102.358604,16.2670875 102.455284,16.7290039 C102.551964,17.1909203 102.600304,17.8372354 102.600304,18.6679688 L102.600304,24.5546875 C102.600304,24.9056007 102.625369,25.1508782 102.675499,25.2905273 C102.72563,25.4301765 102.811566,25.5 102.933312,25.5 C103.047896,25.5 103.153526,25.4731448 103.250206,25.4194336 C103.346886,25.3657224 103.47042,25.2851568 103.620812,25.1777344 L103.835655,25.5537109 C103.491904,25.8401707 103.090866,26.0460606 102.63253,26.1713867 C102.174195,26.2967129 101.622768,26.359375 100.978234,26.359375 C100.204792,26.359375 99.6372523,26.2036148 99.2755968,25.8920898 C98.9139413,25.5805648 98.7259549,25.1813175 98.711632,24.6943359 C98.4036877,25.202802 97.9704238,25.6074204 97.4118273,25.9082031 C96.8532307,26.2089859 96.2373515,26.359375 95.564171,26.359375 C94.6976302,26.359375 94.0190888,26.1302106 93.5285265,25.671875 C93.0379641,25.2135394 92.7926866,24.6012408 92.7926866,23.8349609 C92.7926866,23.0830041 93.0182703,22.4563827 93.4694445,21.9550781 C93.9206186,21.4537735 94.6260152,21.0455745 95.5856554,20.7304688 C96.3662583,20.4511705 96.9445402,20.2309578 97.3205187,20.0698242 C97.6964971,19.9086906 98.0115981,19.7153332 98.2658312,19.4897461 C98.5200642,19.264159 98.6471788,18.9973974 98.6471788,18.6894531 L98.6471788,16.7236328 Z M98.6471788,19.5917969 C98.5397564,19.7708342 98.2533009,20.0930966 97.7878038,20.5585938 C97.0716544,21.2532587 96.7135851,22.0803988 96.7135851,23.0400391 C96.7135851,24.0784557 97.0859772,24.5976562 97.8307726,24.5976562 C98.1387168,24.5976562 98.4108495,24.4759127 98.6471788,24.2324219 L98.6471788,19.5917969 Z M115.523394,22.7822266 C115.322872,23.426761 115.023884,24.0318982 114.626421,24.5976562 C114.228959,25.1634143 113.71871,25.6253237 113.09566,25.9833984 C112.47261,26.3414731 111.74931,26.5205078 110.925738,26.5205078 C109.321563,26.5205078 108.036094,26.0424852 107.069293,25.0864258 C106.102491,24.1303663 105.619097,22.6067813 105.619097,20.515625 C105.619097,19.1549411 105.862584,18.023442 106.349566,17.1210938 C106.836548,16.2187455 107.504347,15.5527365 108.352984,15.1230469 C109.201621,14.6933572 110.17736,14.4785156 111.28023,14.4785156 C111.881796,14.4785156 112.435013,14.5411778 112.939898,14.6665039 C113.444783,14.7918301 113.858353,14.9511709 114.180621,15.1445312 C114.588826,15.3808606 114.911088,15.6977519 115.147418,16.0952148 C115.383747,16.4926778 115.50191,16.9384741 115.50191,17.4326172 C115.50191,17.8336609 115.410602,18.1971012 115.227984,18.5229492 C115.045366,18.8487972 114.792927,19.1048168 114.47066,19.2910156 C114.148392,19.4772145 113.786742,19.5703125 113.385699,19.5703125 C112.755487,19.5703125 112.261352,19.3876971 111.903277,19.0224609 C111.545202,18.6572247 111.366168,18.1774118 111.366168,17.5830078 C111.366168,17.0530572 111.539831,16.5893575 111.887164,16.1918945 C112.234496,15.7944316 112.662389,15.5240893 113.170855,15.3808594 C112.934526,15.2089835 112.640909,15.1230469 112.289996,15.1230469 C111.344678,15.1230469 110.68225,15.6261343 110.302691,16.6323242 C109.923132,17.6385141 109.733355,18.8290947 109.733355,20.2041016 C109.733355,21.6149159 110.000117,22.6193004 110.533648,23.2172852 C111.067179,23.8152699 111.717075,24.1142578 112.483355,24.1142578 C113.550418,24.1142578 114.43843,23.6237028 115.147418,22.6425781 L115.523394,22.7822266 Z M129.563672,24.5976562 C129.599479,24.6621097 129.669303,24.7892243 129.773145,24.9790039 C129.876986,25.1687835 129.982617,25.3281244 130.090039,25.4570312 C130.197461,25.5859381 130.315624,25.6826169 130.444531,25.7470703 L130.444531,26.2089844 C129.09817,26.1516924 128.213739,26.1230469 127.791211,26.1230469 C127.297068,26.1230469 126.262247,26.1516924 124.686719,26.2089844 L124.686719,25.7470703 C125.109247,25.7470703 125.320508,25.611004 125.320508,25.3388672 C125.320508,25.2457678 125.291862,25.1311856 125.23457,24.9951172 L123.300977,20.9023438 C123.143424,20.601561 122.907098,20.4404298 122.591992,20.4189453 L122.591992,24.1679688 C122.591992,24.5761739 122.63138,24.8948556 122.710156,25.1240234 C122.788933,25.3531913 122.917838,25.5143225 123.096875,25.6074219 C123.275912,25.7005213 123.5194,25.7470703 123.827344,25.7470703 L123.827344,26.2089844 C122.251815,26.1516924 121.209833,26.1230469 120.701367,26.1230469 C120.192901,26.1230469 119.093628,26.1516924 117.403516,26.2089844 L117.403516,25.7470703 C117.71146,25.7470703 117.954947,25.7005213 118.133984,25.6074219 C118.313022,25.5143225 118.441927,25.3531913 118.520703,25.1240234 C118.59948,24.8948556 118.638867,24.5761739 118.638867,24.1679688 L118.638867,11.6425781 C118.638867,10.9622362 118.545769,10.4698908 118.35957,10.1655273 C118.173371,9.86116384 117.85469,9.70898438 117.403516,9.70898438 L117.403516,9.24707031 C117.861851,9.29003928 118.316599,9.31152344 118.767773,9.31152344 C120.307495,9.31152344 121.582222,9.20768333 122.591992,9 L122.591992,20 C123.021682,19.985677 123.336783,19.8782562 123.537305,19.6777344 L125.23457,18.0878906 C125.750198,17.600909 126.008008,17.1246768 126.008008,16.6591797 C126.008008,16.2796205 125.841506,15.9573581 125.508496,15.6923828 C125.175487,15.4274075 124.754755,15.2734377 124.246289,15.2304688 L124.246289,14.7900391 C125.084184,14.833008 125.965034,14.8544922 126.888867,14.8544922 C128.321166,14.8544922 129.32376,14.833008 129.89668,14.7900391 L129.89668,15.2304688 C128.872586,15.509767 127.787636,16.2294864 126.641797,17.3896484 L126.072461,17.9482422 L129.563672,24.5976562 Z" id="BrandStack"></path>
            </g>
        </g>
    </g>
</svg>